<svg width="160" height="160" viewBox="0 0 160 160" fill="none" xmlns="http://www.w3.org/2000/svg">
<g clip-path="url(#clip0_16406_32299)">
<rect width="160" height="160" rx="8" fill="#EFF5F5"/>
<path fill-rule="evenodd" clip-rule="evenodd" d="M78.0886 19.2927C72.7833 19.7897 66.6701 21.3715 61.9187 23.4769C55.7198 26.2236 51.4578 30.5394 48.6326 36.9305C46.322 42.1581 45.3428 49.051 45.9089 56.1036C46.0769 58.1974 46.672 62.4923 46.8784 63.1019C46.9543 63.3259 46.855 63.3738 46.3041 63.38C45.273 63.3915 44.4919 63.8148 44.035 64.6099C43.1953 66.0707 43.1056 67.6085 43.6372 71.4238C44.4912 77.5513 46.225 80.9683 49.0681 82.1272C49.8558 82.4483 49.8874 82.4876 50.0859 83.3939C50.7855 86.5868 52.1164 90.8658 52.8781 92.3707C53.7931 94.1788 55.8899 96.8003 57.8367 98.5705L59.6531 100.222L59.4877 102.329C59.0402 108.026 58.3929 110.879 57.8191 112.671C56.9593 115.355 54.641 117.99 51.5286 119.821C49.3136 121.124 49.1824 121.187 37.351 126.589C32.2612 128.913 30.3068 129.817 26.8831 131.429C16.4075 136.362 11.6621 139.134 7.77361 142.588C5.43333 144.668 4.10879 146.313 2.80083 148.767C1.65861 150.91 0 154.344 0.112847 156.324L0 169.6H160C160 163.72 160 156.597 159.393 154.327C156.694 144.802 151.876 140.415 135.488 132.557C130.958 130.386 129.719 129.809 122.664 126.589C117.283 124.132 115.439 123.283 111.848 121.606C109.906 120.699 107.251 119.096 106.056 118.108C103.964 116.379 102.503 114.074 101.898 111.549C101.553 110.107 100.866 106.379 100.518 102.144L100.329 99.8539L101.465 98.7419C104.045 96.2158 105.931 93.496 106.849 90.9795C107.332 89.6544 108.288 86.2608 108.794 84.0716C108.965 83.3345 109.152 82.6733 109.211 82.6023C109.27 82.5313 109.694 82.3054 110.154 82.1003C111.249 81.612 112.662 80.2425 113.451 78.9049C114.812 76.5973 115.484 73.6912 115.635 69.4637C115.725 66.91 115.702 66.5673 115.368 65.5934C114.861 64.1139 113.917 63.3726 112.539 63.3726C112.081 63.3726 112.039 63.3302 112.111 62.9473C112.156 62.7134 112.311 61.4084 112.457 60.0474C113.731 48.1305 113.034 39.7711 110.399 35.3791C108.898 32.8763 106.356 30.1732 104.457 29.0585C102.157 27.7091 99.864 27.0274 97.6261 27.0274H96.2206L95.6536 26.0082C95.1032 25.0185 94.0888 23.6985 93.1858 22.7967C91.7431 21.3555 89.0201 19.9546 86.8068 19.5148C85.3715 19.2296 80.1763 19.0972 78.0886 19.2927Z" fill="#9BB4B9"/>
</g>
<defs>
<clipPath id="clip0_16406_32299">
<rect width="160" height="160" rx="8" fill="white"/>
</clipPath>
</defs>
</svg>
